# File created by Blade
# Date/Time:  Wed Jan 21 19:03:17 2015
#---------------------------------------------------------
:version 1.10
:name HOM
:units
  mass 1.0
  length 1.000000
  angle deg
:documentation
     Acclaim Skeleton File
:root
   axis xyz
   order TX TY TZ RX RY RZ
   position 0.000000 0.000000 0.000000
   orientation 0 0 0
:bonedata
   begin
      id 1
      name RightUpLeg_dum
      direction -1.000000 0.000000 0.000000
      length 3.693983
      axis 0.0 0.0 0.0 xyz
   end
   begin
      id 2
      name LeftUpLeg_dum
      direction 1.000000 0.000000 0.000000
      length 3.693983
      axis 0.0 0.0 0.0 xyz
   end
   begin
      id 3
      name Spine_dum
      direction 0.000000 1.000000 0.000000
      length 2.392956
      axis 0.0 0.0 0.0 xyz
   end
   begin
      id 4
      name RightUpLeg
      direction 0.000000 -1.000000 0.000000
      length 15.795667
      axis 0.0 0.0 0.0 xyz
      dof rx ry rz
   end
   begin
      id 5
      name RightLeg
      direction 0.000000 -1.000000 0.000000
      length 14.766989
      axis 0.0 0.0 0.0 xyz
      dof rx ry rz
   end
   begin
      id 6
      name RightFoot
      direction 0.000000 -0.258819 0.965926
      length 4.962790
      axis 15.0 0.0 0.0 xyz
      dof rx ry rz
   end
   begin
      id 7
      name RightToeBase
      direction 0.000000 0.000000 1.000000
      length 2.952750
      axis 0.0 0.0 0.0 xyz
      dof rx ry rz
   end
   begin
      id 8
      name LeftUpLeg
      direction 0.000000 -1.000000 0.000000
      length 15.795667
      axis 0.0 0.0 0.0 xyz
      dof rx ry rz
   end
   begin
      id 9
      name LeftLeg
      direction 0.000000 -1.000000 0.000000
      length 14.766989
      axis 0.0 0.0 0.0 xyz
      dof rx ry rz
   end
   begin
      id 10
      name LeftFoot
      direction 0.000000 -0.258819 0.965926
      length 4.962790
      axis 15.0 0.0 0.0 xyz
      dof rx ry rz
   end
   begin
      id 11
      name LeftToeBase
      direction 0.000000 0.000000 1.000000
      length 2.952750
      axis 0.0 0.0 0.0 xyz
      dof rx ry rz
   end
   begin
      id 12
      name Spine
      direction 0.000000 1.000000 0.000000
      length 0.000000
      axis 0.0 0.0 0.0 xyz
      dof rx ry rz
   end
   begin
      id 13
      name Spine_dum1
      direction 0.000000 1.000000 0.000000
      length 13.207411
      axis 0.0 0.0 0.0 xyz
   end
   begin
      id 14
      name Spine_dum2
      direction 0.000000 1.000000 0.000000
      length 13.207411
      axis 0.0 0.0 0.0 xyz
   end
   begin
      id 15
      name Spine_dum3
      direction 0.000000 1.000000 0.000000
      length 19.250100
      axis 0.0 0.0 0.0 xyz
   end
   begin
      id 16
      name RightShoulder
      direction -1.000000 0.000000 0.000000
      length 8.140465
      axis 0.0 0.0 90.0 xyz
      dof rx ry rz
   end
   begin
      id 17
      name RightArm
      direction -1.000000 0.000000 0.000000
      length 10.649840
      axis 0.0 0.0 90.0 xyz
      dof rx ry rz
   end
   begin
      id 18
      name RightForeArm
      direction -1.000000 0.000000 0.000000
      length 8.304624
      axis 0.0 0.0 90.0 xyz
      dof ry rz rx
   end
   begin
      id 19
      name RightHand
      direction -1.000000 0.000000 0.000000
      length 0.000000
      axis 0.0 0.0 90.0 xyz
      dof rx ry rz
   end
   begin
      id 20
      name RightHand_dum1
      direction -1.000000 0.000000 0.000000
      length 3.937000
      axis 0.0 0.0 90.0 xyz
   end
   begin
      id 21
      name RightHand_dum2
      direction 0.000000 0.000000 0.000000
      length 0.000000
      axis 0.0 0.0 90.0 xyz
   end
   begin
      id 22
      name RightHandThumb1
      direction 0.000000 0.000000 1.000000
      length 3.937000
      axis 0.0 0.0 90.0 xyz
      dof rx rz ry
   end
   begin
      id 23
      name LeftShoulder
      direction 1.000000 0.000000 0.000000
      length 8.140465
      axis 0.0 0.0 -90.0 xyz
      dof rx ry rz
   end
   begin
      id 24
      name LeftArm
      direction 1.000000 0.000000 0.000000
      length 10.649840
      axis 0.0 0.0 -90.0 xyz
      dof rx ry rz
   end
   begin
      id 25
      name LeftForeArm
      direction 1.000000 0.000000 0.000000
      length 8.304624
      axis 0.0 0.0 -90.0 xyz
      dof ry rz rx
   end
   begin
      id 26
      name LeftHand
      direction 1.000000 0.000000 0.000000
      length 0.000000
      axis 0.0 0.0 -90.0 xyz
      dof rx ry rz
   end
   begin
      id 27
      name LeftHand_dum1
      direction 1.000000 0.000000 0.000000
      length 3.937000
      axis 0.0 0.0 -90.0 xyz
   end
   begin
      id 28
      name LeftHand_dum2
      direction 0.000000 0.000000 0.000000
      length 0.000000
      axis 0.0 0.0 -90.0 xyz
   end
   begin
      id 29
      name LeftHandThumb1
      direction 0.000000 0.000000 1.000000
      length 3.937000
      axis 0.0 0.0 -90.0 xyz
      dof rx rz ry
   end
   begin
      id 30
      name Head
      direction 0.000000 1.000000 0.000000
      length 4.527550
      axis 0.0 0.0 0.0 xyz
      dof rx ry rz
   end
:hierarchy
   begin
      root RightUpLeg_dum LeftUpLeg_dum Spine_dum
      RightUpLeg_dum RightUpLeg
      LeftUpLeg_dum LeftUpLeg
      Spine_dum Spine
      RightUpLeg RightLeg
      RightLeg RightFoot
      RightFoot RightToeBase
      LeftUpLeg LeftLeg
      LeftLeg LeftFoot
      LeftFoot LeftToeBase
      Spine Spine_dum1 Spine_dum2 Spine_dum3
      Spine_dum1 RightShoulder
      Spine_dum2 LeftShoulder
      Spine_dum3 Head
      RightShoulder RightArm
      RightArm RightForeArm
      RightForeArm RightHand
      RightHand RightHand_dum1 RightHand_dum2
      RightHand_dum2 RightHandThumb1
      LeftShoulder LeftArm
      LeftArm LeftForeArm
      LeftForeArm LeftHand
      LeftHand LeftHand_dum1 LeftHand_dum2
      LeftHand_dum2 LeftHandThumb1
   end

# File created by Blade
# Date/Time:  Wed Jan 21 19:03:07 2015
# Frame Rate: 120.000 fps
#------------------------------------------------------
:FULLY-SPECIFIED
:DEGREES
339
root -5.488345 30.335526 -5.557460 50.156380 3.655543 2.167702
RightUpLeg -42.745626 -32.946427 -0.015860
RightLeg -5.823809 -0.000000 0.000000
RightFoot -2.548547 0.252700 43.940736
RightToeBase 17.674178 -0.000000 -0.000000
LeftUpLeg -46.945981 24.308511 2.825960
LeftLeg -1.891444 -0.000000 0.000000
LeftFoot -0.792186 -2.766177 -25.249224
LeftToeBase 7.912721 -0.000000 -0.000000
Spine -45.339994 -0.696347 3.121207
RightShoulder -17.780536 13.403054 -38.239875
RightArm 0.082434 -11.798045 52.732505
RightForeArm 10.113340 0.000000 -3.453594
RightHand 11.628077 -0.000000 1.434600
RightHandThumb1 -24.326973 -0.000000 -32.862282
LeftShoulder -10.788956 7.061074 36.133325
LeftArm 19.509956 -11.076564 -54.379153
LeftForeArm 10.496973 -0.000000 1.334142
LeftHand -17.802757 0.000000 1.518388
LeftHandThumb1 -26.253704 0.000000 33.147579
Head 7.704917 -4.103832 12.389490
340
root -5.455210 30.330158 -5.549845 50.098114 3.687722 2.214903
RightUpLeg -42.691032 -33.027783 -0.120507
RightLeg -5.728581 -0.000000 0.000000
RightFoot -2.597251 0.228993 43.921072
RightToeBase 17.641981 -0.000000 -0.000000
LeftUpLeg -46.808122 24.268081 2.775580
LeftLeg -2.028153 -0.000000 0.000000
LeftFoot -0.808600 -2.895895 -25.310410
LeftToeBase 7.968811 -0.000000 -0.000000
Spine -45.373509 -0.686404 3.018867
RightShoulder -17.842607 13.400250 -38.028904
RightArm -0.095783 -11.775287 53.060003
RightForeArm 10.272381 -0.000000 -3.583824
RightHand 11.612527 -0.000000 1.503937
RightHandThumb1 -24.326973 -0.000000 -32.862282
LeftShoulder -10.760188 7.026102 36.056507
LeftArm 19.650291 -11.034668 -54.407311
LeftForeArm 10.674805 -0.000000 1.751464
LeftHand -17.823610 -0.000000 1.990897
LeftHandThumb1 -26.253704 0.000000 33.147579
Head 7.615499 -4.203072 12.582331
341
root -5.423622 30.324900 -5.543286 50.068899 3.726004 2.270604
RightUpLeg -42.662569 -33.114460 -0.212159
RightLeg -5.647052 -0.000000 0.000000
RightFoot -2.666890 0.192996 43.920218
RightToeBase 17.684154 -0.000000 -0.000000
LeftUpLeg -46.699579 24.199961 2.743616
LeftLeg -2.151709 -0.000000 0.000000
LeftFoot -0.810596 -3.008796 -25.343171
LeftToeBase 7.941826 -0.000000 -0.000000
Spine -45.445307 -0.717325 2.931922
RightShoulder -17.884609 13.347363 -37.817857
RightArm -0.235893 -11.546204 53.424322
RightForeArm 10.343410 0.000000 -3.717998
RightHand 11.673930 -0.000000 1.642588
RightHandThumb1 -24.326973 -0.000000 -32.862282
LeftShoulder -10.686023 6.949224 36.027909
LeftArm 19.648635 -10.894874 -54.449846
LeftForeArm 10.761204 -0.000000 2.214006
LeftHand -18.024245 -0.000000 2.533871
LeftHandThumb1 -26.253704 0.000000 33.147579
Head 7.489946 -4.300626 12.789844
342
root -5.394629 30.320912 -5.539529 50.037837 3.757199 2.325430
RightUpLeg -42.644692 -33.209707 -0.282061
RightLeg -5.582197 -0.000000 0.000000
RightFoot -2.719139 0.152665 43.881781
RightToeBase 17.774782 -0.000000 -0.000000
LeftUpLeg -46.625164 24.162336 2.683602
LeftLeg -2.237358 -0.000000 0.000000
LeftFoot -0.798185 -3.172859 -25.415152
LeftToeBase 7.981319 -0.000000 -0.000000
Spine -45.478826 -0.728057 2.825856
RightShoulder -17.967071 13.338253 -37.657513
RightArm -0.456570 -11.545921 53.846933
RightForeArm 10.522382 -0.000000 -3.782611
RightHand 11.596477 -0.000000 1.652898
RightHandThumb1 -24.326973 -0.000000 -32.862282
LeftShoulder -10.662479 6.981605 35.954557
LeftArm 19.803232 -10.726127 -54.494160
LeftForeArm 10.831385 -0.000000 2.654975
LeftHand -18.141865 -0.000000 3.043316
LeftHandThumb1 -26.253704 0.000000 33.147579
Head 7.302784 -4.382235 12.965532
343
root -5.366041 30.316857 -5.538874 50.010996 3.788481 2.380493
RightUpLeg -42.588880 -33.252592 -0.409698
RightLeg -5.546151 -0.000000 0.000000
RightFoot -2.798238 0.088734 43.751724
RightToeBase 17.830211 -0.000000 -0.000000
LeftUpLeg -46.538959 24.081828 2.665630
LeftLeg -2.331853 -0.000000 0.000000
LeftFoot -0.822357 -3.265183 -25.458603
LeftToeBase 8.014276 -0.000000 -0.000000
Spine -45.527906 -0.759452 2.718390
RightShoulder -18.020900 13.262656 -37.468386
RightArm -0.597101 -11.259136 54.257895
RightForeArm 10.613956 0.000000 -3.918842
RightHand 11.587071 -0.000000 1.906371
RightHandThumb1 -24.326973 -0.000000 -32.862282
LeftShoulder -10.594830 6.950761 35.917197
LeftArm 19.882418 -10.585951 -54.578449
LeftForeArm 10.970146 -0.000000 3.040124
LeftHand -18.239236 0.000000 3.414204
LeftHandThumb1 -26.253704 0.000000 33.147579
Head 7.141416 -4.439009 13.180888
344
root -5.342885 30.312751 -5.537822 50.004364 3.818025 2.419873
RightUpLeg -42.549091 -33.283404 -0.496923
RightLeg -5.536788 -0.000000 0.000000
RightFoot -2.876598 0.002681 43.659347
RightToeBase 17.859299 -0.000000 -0.000000
LeftUpLeg -46.478468 24.012655 2.664762
LeftLeg -2.409106 -0.000000 0.000000
LeftFoot -0.823839 -3.345304 -25.463386
LeftToeBase 7.949478 -0.000000 -0.000000
Spine -45.574734 -0.773509 2.602527
RightShoulder -18.125916 13.215821 -37.342842
RightArm -0.768584 -10.970460 54.745817
RightForeArm 10.558177 -0.000000 -4.085422
RightHand 11.660715 -0.000000 2.120691
RightHandThumb1 -24.326973 -0.000000 -32.862282
LeftShoulder -10.552151 6.888215 35.886820
LeftArm 19.950385 -10.408051 -54.684184
LeftForeArm 11.046676 -0.000000 3.426652
LeftHand -18.257503 -0.000000 3.850761
LeftHandThumb1 -26.253704 0.000000 33.147579
Head 6.901434 -4.542051 13.384402
345
root -5.320703 30.308672 -5.536683 49.998003 3.863248 2.479667
RightUpLeg -42.483938 -33.344619 -0.582858
RightLeg -5.573366 -0.000000 0.000000
RightFoot -2.940927 -0.092905 43.588115
RightToeBase 17.955032 -0.000000 -0.000000
LeftUpLeg -46.436977 23.926151 2.651367
LeftLeg -2.461261 -0.000000 0.000000
LeftFoot -0.832015 -3.435226 -25.438864
LeftToeBase 7.936592 -0.000000 -0.000000
Spine -45.622090 -0.854655 2.529462
RightShoulder -18.196937 13.192232 -37.198401
RightArm -0.893275 -10.789704 55.217388
RightForeArm 10.569086 0.000000 -4.293696
RightHand 11.674130 -0.000000 2.252785
RightHandThumb1 -24.326973 -0.000000 -32.862282
LeftShoulder -10.539007 6.894757 35.795847
LeftArm 20.014238 -10.057751 -54.666043
LeftForeArm 10.929065 0.000000 3.802980
LeftHand -18.146750 -0.000000 3.912813
LeftHandThumb1 -26.253704 0.000000 33.147579
Head 6.661072 -4.547941 13.566917
346
root -5.297757 30.305052 -5.538968 49.986147 3.916181 2.548814
RightUpLeg -42.430197 -33.443930 -0.642648
RightLeg -5.617847 -0.000000 0.000000
RightFoot -2.936066 -0.150786 43.593162
RightToeBase 17.925230 -0.000000 -0.000000
LeftUpLeg -46.398145 23.817614 2.634991
LeftLeg -2.517572 -0.000000 0.000000
LeftFoot -0.847956 -3.491369 -25.435111
LeftToeBase 7.905849 -0.000000 -0.000000
Spine -45.652118 -0.946933 2.466982
RightShoulder -18.237466 13.198550 -37.086445
RightArm -1.131183 -10.496533 55.706022
RightForeArm 10.390035 -0.000000 -4.350271
RightHand 11.503180 -0.000000 2.659520
RightHandThumb1 -24.326973 -0.000000 -32.862282
LeftShoulder -10.505694 6.875296 35.725046
LeftArm 20.026251 -9.972470 -54.811093
LeftForeArm 11.153302 0.000000 4.187172
LeftHand -18.205651 -0.000000 4.265309
LeftHandThumb1 -26.253704 0.000000 33.147579
Head 6.406534 -4.629280 13.704547
347
root -5.278466 30.301791 -5.543866 49.992267 3.979639 2.600380
RightUpLeg -42.404486 -33.533310 -0.662741
RightLeg -5.660659 -0.000000 0.000000
RightFoot -2.955229 -0.216455 43.519663
RightToeBase 17.967221 -0.000000 -0.000000
LeftUpLeg -46.379658 23.700878 2.649401
LeftLeg -2.572863 -0.000000 0.000000
LeftFoot -0.874878 -3.506282 -25.458347
LeftToeBase 7.947564 -0.000000 -0.000000
Spine -45.690281 -1.037980 2.422344
RightShoulder -18.282244 13.152634 -36.953709
RightArm -1.243738 -10.467892 56.190185
RightForeArm 10.609556 0.000000 -4.551277
RightHand 11.369839 -0.000000 3.092656
RightHandThumb1 -24.326973 -0.000000 -32.862282
LeftShoulder -10.486465 6.823813 35.638469
LeftArm 20.033251 -9.818480 -54.933687
LeftForeArm 11.349666 -0.000000 4.568401
LeftHand -18.232295 -0.000000 4.464890
LeftHandThumb1 -26.253704 0.000000 33.147579
Head 6.147702 -4.648628 13.831479
348
root -5.261862 30.298735 -5.550471 49.997154 4.030498 2.648370
RightUpLeg -42.394699 -33.628081 -0.661014
RightLeg -5.706191 -0.000000 0.000000
RightFoot -2.978700 -0.252892 43.428152
RightToeBase 18.104548 -0.000000 -0.000000
LeftUpLeg -46.354980 23.583843 2.670233
LeftLeg -2.634906 -0.000000 0.000000
LeftFoot -0.889660 -3.502189 -25.393315
LeftToeBase 7.895831 -0.000000 -0.000000
Spine -45.717348 -1.147416 2.388702
RightShoulder -18.259665 13.127314 -36.816303
RightArm -1.393068 -10.392243 56.701429
RightForeArm 10.528844 0.000000 -4.795071
RightHand 11.188835 -0.000000 3.312618
RightHandThumb1 -24.326973 -0.000000 -32.862282
LeftShoulder -10.495886 6.807578 35.531468
LeftArm 20.113176 -9.334986 -54.947292
LeftForeArm 11.063666 -0.000000 4.780656
LeftHand -18.324634 -0.000000 4.786455
LeftHandThumb1 -26.253704 0.000000 33.147579
Head 5.859534 -4.689932 13.952807
